<svg id="图层_1" data-name="图层 1" xmlns="http://www.w3.org/2000/svg" xmlns:xlink="http://www.w3.org/1999/xlink" viewBox="55 65 180 150"><defs><style>.cls-1,.cls-2{fill:#545c64;}.cls-1,.cls-4{stroke:#fff;stroke-miterlimit:10;}.cls-3{clip-path:url(#clip-path);}.cls-4{fill:none;}.cls-5{clip-path:url(#clip-path-2);}.cls-6{fill:#fff;}</style><clipPath id="clip-path" transform="translate(2.67 2.67)"><path class="cls-1" d="M139.81,166.62l25.77,42.85a221,221,0,0,0-34.8-1.78A278.38,278.38,0,0,0,92,211.17L66.21,168.32a276.87,276.87,0,0,1,38.8-3.47A221.06,221.06,0,0,1,139.81,166.62Z"/></clipPath><clipPath id="clip-path-2" transform="translate(2.67 2.67)"><path class="cls-1" d="M205.21,84,231,126.81c-15.09,20-29.19,45.74-35.95,65.64L169.25,149.6C176,129.7,190.11,104,205.21,84Z"/></clipPath></defs><title>D logo svg new color</title><rect class="cls-2" width="288.81" height="288.81"/><path class="cls-2" d="M139.81,166.62l25.77,42.85a221,221,0,0,0-34.8-1.78A278.38,278.38,0,0,0,92,211.17L66.21,168.32a276.87,276.87,0,0,1,38.8-3.47A221.06,221.06,0,0,1,139.81,166.62Z" transform="translate(2.67 2.67)"/><g class="cls-3"><path class="cls-1" d="M139.81,166.62l25.77,42.85a221,221,0,0,0-34.8-1.78A278.38,278.38,0,0,0,92,211.17L66.21,168.32a276.87,276.87,0,0,1,38.8-3.47,221.06,221.06,0,0,1,34.8,1.77" transform="translate(2.67 2.67)"/></g><path class="cls-4" d="M139.81,166.62l25.77,42.85a221,221,0,0,0-34.8-1.78A278.38,278.38,0,0,0,92,211.17L66.21,168.32a276.87,276.87,0,0,1,38.8-3.47A221.06,221.06,0,0,1,139.81,166.62Z" transform="translate(2.67 2.67)"/><path class="cls-1" d="M119.62,69.46a215.23,215.23,0,0,0,36.43,2,276.27,276.27,0,0,0,39.33-3.57l9.83,16c-15.1,20-29.2,45.74-36,65.64l-29.44,17a221.06,221.06,0,0,0-34.8-1.77,276.87,276.87,0,0,0-38.8,3.47L55.85,152.37c15-19.89,29-45.47,35.84-65.32Z" transform="translate(2.67 2.67)"/><path class="cls-2" d="M205.21,84,231,126.81c-15.09,20-29.19,45.74-35.95,65.64L169.25,149.6C176,129.7,190.11,104,205.21,84Z" transform="translate(2.67 2.67)"/><g class="cls-5"><path class="cls-1" d="M205.21,84a275.43,275.43,0,0,0-23.57,37.45,205.74,205.74,0,0,0-12.39,28.19L195,192.45a204.68,204.68,0,0,1,12.39-28.19A276.35,276.35,0,0,1,231,126.81Z" transform="translate(2.67 2.67)"/></g><path class="cls-4" d="M205.21,84,231,126.81c-15.09,20-29.19,45.74-35.95,65.64L169.25,149.6C176,129.7,190.11,104,205.21,84Z" transform="translate(2.67 2.67)"/><polygon class="cls-1" points="171.92 152.27 197.69 195.12 168.25 212.14 142.48 169.29 171.92 152.27"/><path class="cls-6" d="M131.86,101l-1.8,3.42-4.78.11,1.8-3.42Zm-14,26.65-1.8,3.42-4.78.11,1.8-3.42Zm19.29-26.78-1.8,3.43-4.78.11,1.8-3.43Zm-2,3.81-1.79,3.43-4.78.11,1.79-3.43Zm-2,3.81-1.8,3.42-4.78.12,1.8-3.43Zm-2,3.81-1.8,3.42-4.78.11,1.8-3.42Zm-2,3.8-1.79,3.43-4.78.11,1.79-3.43Zm-2,3.81-1.8,3.43-4.78.11,1.8-3.43Zm-2,3.81-1.8,3.42-4.78.11,1.8-3.42Zm-2,3.81L121.4,131l-4.78.11,1.79-3.42Zm19.29-26.78-1.79,3.43-4.78.11,1.79-3.43Zm-14,26.65-1.79,3.43-4.78.11,1.79-3.43Zm19.29-26.77L146,104.05l-4.78.11,1.79-3.42Zm-14,26.65-1.8,3.43-4.78.11,1.8-3.43Zm17.29-23-1.8,3.43-4.78.11,1.8-3.43Zm-2,3.81-1.79,3.43-4.78.11,1.79-3.43Zm-2,3.81-1.8,3.42-4.78.11,1.8-3.42Zm-2,3.81-1.8,3.42-4.78.11,1.8-3.42Zm-2,3.8-1.8,3.43-4.78.11,1.8-3.43Zm-2,3.81-1.79,3.43-4.78.11,1.79-3.43Z" transform="translate(2.67 2.67)"/></svg>