<svg id="dsnut" data-name="dsnut" xmlns="http://www.w3.org/2000/svg" xmlns:xlink="http://www.w3.org/1999/xlink" viewBox="0 0 236.3 193.4"><defs><style>.cls-1,.cls-2{fill:#fff;}.cls-1,.cls-4{stroke:#000;stroke-miterlimit:10;}.cls-3{clip-path:url(#clip-path);}.cls-4{fill:none;}.cls-5{clip-path:url(#clip-path-2);}.cls-6{fill:#231815;}</style><clipPath id="clip-path" transform="translate(-302.79 -200.94)"><path class="cls-1" d="M416.11,334l34.6,57.52A296.36,296.36,0,0,0,404,389.13a372.84,372.84,0,0,0-52.08,4.66l-34.59-57.52a372.69,372.69,0,0,1,52.07-4.66A296.23,296.23,0,0,1,416.11,334Z"/></clipPath><clipPath id="clip-path-2" transform="translate(-302.79 -200.94)"><path class="cls-1" d="M503.9,223l34.59,57.52c-20.27,26.84-39.19,61.4-48.26,88.11l-34.6-57.52C464.71,284.43,483.63,249.87,503.9,223Z"/></clipPath></defs><title>未标题-3</title><path class="cls-2" d="M416.11,334l34.6,57.52A296.36,296.36,0,0,0,404,389.13a372.84,372.84,0,0,0-52.08,4.66l-34.59-57.52a372.69,372.69,0,0,1,52.07-4.66A296.23,296.23,0,0,1,416.11,334Z" transform="translate(-302.79 -200.94)"/><g class="cls-3"><path class="cls-1" d="M416.11,334l34.6,57.52A296.36,296.36,0,0,0,404,389.13a372.84,372.84,0,0,0-52.08,4.66l-34.59-57.52a372.69,372.69,0,0,1,52.07-4.66A296.23,296.23,0,0,1,416.11,334" transform="translate(-302.79 -200.94)"/></g><path class="cls-4" d="M416.11,334l34.6,57.52A296.36,296.36,0,0,0,404,389.13a372.84,372.84,0,0,0-52.08,4.66l-34.59-57.52a372.69,372.69,0,0,1,52.07-4.66A296.23,296.23,0,0,1,416.11,334Z" transform="translate(-302.79 -200.94)"/><path class="cls-1" d="M389,203.56c14.08,2.19,31.16,3.08,48.91,2.72a373.25,373.25,0,0,0,52.8-4.79L503.9,223c-20.27,26.84-39.19,61.4-48.27,88.11L416.11,334a296.23,296.23,0,0,0-46.72-2.38,372.69,372.69,0,0,0-52.07,4.66L303.4,314.86c20.16-26.7,39-61,48.12-87.69Z" transform="translate(-302.79 -200.94)"/><path class="cls-2" d="M503.9,223l34.59,57.52c-20.27,26.84-39.19,61.4-48.26,88.11l-34.6-57.52C464.71,284.43,483.63,249.87,503.9,223Z" transform="translate(-302.79 -200.94)"/><g class="cls-5"><path class="cls-1" d="M503.9,223a370.1,370.1,0,0,0-31.64,50.27,276,276,0,0,0-16.63,37.84l34.6,57.52a273.54,273.54,0,0,1,16.63-37.84,369.06,369.06,0,0,1,31.63-50.27Z" transform="translate(-302.79 -200.94)"/></g><path class="cls-4" d="M503.9,223l34.59,57.52c-20.27,26.84-39.19,61.4-48.26,88.11l-34.6-57.52C464.71,284.43,483.63,249.87,503.9,223Z" transform="translate(-302.79 -200.94)"/><polygon class="cls-1" points="152.84 110.2 187.44 167.72 147.92 190.57 113.32 133.05 152.84 110.2"/><path class="cls-6" d="M405.44,245.9,403,250.49l-6.42.15L399,246Zm-18.77,35.77-2.41,4.6-6.42.15,2.42-4.6Zm25.9-35.94-2.41,4.6-6.42.15,2.41-4.6Zm-2.68,5.11-2.42,4.6-6.41.15,2.41-4.6ZM407.21,256l-2.42,4.6-6.41.15,2.41-4.6Zm-2.68,5.11-2.42,4.6-6.41.15,2.41-4.6Zm-2.69,5.11-2.41,4.6-6.41.15,2.41-4.6Zm-2.68,5.12-2.41,4.6-6.42.14,2.42-4.6Zm-2.68,5.11-2.41,4.6-6.42.14,2.42-4.6Zm-2.68,5.11-2.41,4.6-6.42.15,2.42-4.6Zm25.9-35.94-2.41,4.6-6.42.14,2.41-4.6Zm-18.77,35.77-2.41,4.6-6.42.15,2.42-4.6Zm25.9-35.94-2.41,4.6-6.42.15,2.41-4.6Zm-18.77,35.78-2.41,4.6-6.42.15,2.42-4.6Zm23.22-30.83-2.41,4.6-6.42.15,2.41-4.6Zm-2.68,5.11-2.42,4.6-6.41.15,2.41-4.6Zm-2.68,5.11-2.42,4.6-6.41.15,2.41-4.6Zm-2.68,5.11-2.42,4.6-6.41.15,2.41-4.6Zm-2.68,5.11-2.42,4.6-6.41.15,2.41-4.6Zm-2.69,5.11-2.41,4.6-6.41.15,2.41-4.6Z" transform="translate(-302.79 -200.94)"/></svg>